<svg style="position: absolute; width: 0; height: 0; overflow: hidden;" version="1.1" xmlns="http://www.w3.org/2000/svg" xmlns:xlink="http://www.w3.org/1999/xlink">
    <defs>
        <symbol id="icon-arrow-down" viewBox="0 0 32 32">
            <title>arrow-down</title>
            <path class="path1" d="M15.872 25.92l-11.936-19.648h23.68z"></path>
        </symbol>
        <symbol id="icon-arrow-left" viewBox="0 0 32 32">
            <title>arrow-left</title>
            <path class="path1" d="M5.952 16.192l19.648-11.936v23.68z"></path>
        </symbol>
        <symbol id="icon-arrow-right" viewBox="0 0 32 32">
            <title>arrow-right</title>
            <path class="path1" d="M25.6 16l-19.648 11.936v-23.68z"></path>
        </symbol>
        <symbol id="icon-arrow-up" viewBox="0 0 32 32">
            <title>arrow-up</title>
            <path class="path1" d="M15.68 6.272l11.936 19.648h-23.68z"></path>
        </symbol>
        <symbol id="icon-calendar" viewBox="0 0 32 32">
            <title>calendar</title>
            <path class="path1" d="M10.944 6.268c0 0.886-0.718 1.604-1.604 1.604h-0.055c-0.886 0-1.604-0.718-1.604-1.604v-4.535c0-0.886 0.718-1.604 1.604-1.604h0.055c0.886 0 1.604 0.718 1.604 1.604v4.535z"></path>
            <path class="path2" d="M24.512 6.268c0 0.886-0.718 1.604-1.604 1.604h-0.055c-0.886 0-1.604-0.718-1.604-1.604v-4.535c0-0.886 0.718-1.604 1.604-1.604h0.055c0.886 0 1.604 0.718 1.604 1.604v4.535z"></path>
            <path class="path3" d="M29.993 4.16h-4.265v3.017c0 1.332-1.205 2.487-2.769 2.487h-0.090c-1.564 0-2.9-1.156-2.9-2.487v-3.017h-7.808v3.017c0 1.332-1.199 2.487-2.764 2.487h-0.091c-1.564 0-2.906-1.156-2.906-2.487v-3.017h-4.327c-0.95 0-1.753 0.74-1.753 1.69v23.95c0 0.95 0.803 1.752 1.753 1.752h27.92c0.95 0 1.687-0.802 1.687-1.752v-23.95c0-0.95-0.737-1.69-1.687-1.69zM29.824 28.488c0 0.95-0.77 1.72-1.72 1.72h-24.336c-0.95 0-1.72-0.77-1.72-1.72v-13.264c0-0.95 0.77-1.72 1.72-1.72h24.336c0.95 0 1.72 0.77 1.72 1.72v13.264z"></path>
            <path class="path4" d="M10.624 14.656h4.544v3.712h-4.544v-3.712z"></path>
            <path class="path5" d="M16.64 14.656h4.608v3.712h-4.608v-3.712z"></path>
            <path class="path6" d="M22.72 14.656h4.608v3.712h-4.608v-3.712z"></path>
            <path class="path7" d="M10.624 19.84h4.544v3.712h-4.544v-3.712z"></path>
            <path class="path8" d="M4.544 19.84h4.544v3.712h-4.544v-3.712z"></path>
            <path class="path9" d="M16.64 19.84h4.608v3.712h-4.608v-3.712z"></path>
            <path class="path10" d="M22.72 19.84h4.608v3.712h-4.608v-3.712z"></path>
            <path class="path11" d="M10.624 25.024h4.544v3.712h-4.544v-3.712z"></path>
            <path class="path12" d="M4.544 25.024h4.544v3.712h-4.544v-3.712z"></path>
        </symbol>
        <symbol id="icon-location" viewBox="0 0 32 32">
            <title>location</title>
            <path class="path1" d="M16.023 28.050c0.612 0 1.34-0.21 2.117-1.17h-4.011c0.738 0.96 1.396 1.17 1.893 1.17z"></path>
            <path class="path2" d="M19.742 26.88c-1.282 1.984-2.575 2.34-3.719 2.34-0.986 0-2.204-0.356-3.463-2.34h-3.93l-2.405 4.8h19.498l-2.373-4.8h-3.608z"></path>
            <path class="path3" d="M16.023 0.256c-5.268 0-9.538 4.27-9.538 9.538 0 6.548 6.954 18.149 9.538 18.149 3.201 0 9.538-11.698 9.538-18.149 0-5.268-4.27-9.538-9.538-9.538zM16.119 17.024c-3.843 0-6.969-3.127-6.969-6.97s3.126-6.971 6.969-6.971c3.845 0 6.971 3.127 6.971 6.971s-3.126 6.97-6.971 6.97z"></path>
            <path class="path4" d="M16.119 6.203c-2.123 0-3.851 1.728-3.851 3.851s1.728 3.851 3.851 3.851c2.125 0 3.852-1.727 3.852-3.851s-1.728-3.851-3.852-3.851z"></path>
        </symbol>

        <symbol id="icon-search" viewBox="0 0 32 32">
            <title>search</title>
            <path d="M31.008 27.231l-7.58-6.447c-0.784-0.705-1.622-1.029-2.299-0.998 1.789-2.096 2.87-4.815 2.87-7.787 0-6.627-5.373-12-12-12s-12 5.373-12 12 5.373 12 12 12c2.972 0 5.691-1.081 7.787-2.87-0.031 0.677 0.293 1.515 0.998 2.299l6.447 7.58c1.104 1.226 2.907 1.33 4.007 0.23s0.997-2.903-0.23-4.007zM12 20c-4.418 0-8-3.582-8-8s3.582-8 8-8 8 3.582 8 8-3.582 8-8 8z"></path>
        </symbol>
        <symbol id="icon-info" viewBox="0 0 32 32">
            <title>info</title>
            <path class="path1" d="M15.975 31.687c-8.648 0-15.684-7.036-15.684-15.684s7.036-15.684 15.684-15.684c8.648 0 15.684 7.036 15.684 15.684s-7.036 15.684-15.684 15.684zM15.975 2.427c-7.486 0-13.577 6.091-13.577 13.577s6.091 13.577 13.577 13.577 13.577-6.091 13.577-13.577-6.091-13.577-13.577-13.577z"></path>
            <path class="path2" d="M17.925 8.501c0 0.27-0.055 0.522-0.164 0.758s-0.255 0.442-0.436 0.62c-0.181 0.176-0.395 0.318-0.639 0.422-0.244 0.106-0.505 0.159-0.783 0.159-0.27 0-0.525-0.053-0.765-0.159-0.24-0.104-0.448-0.247-0.625-0.422-0.177-0.178-0.318-0.384-0.424-0.62-0.104-0.236-0.158-0.488-0.158-0.758 0-0.278 0.053-0.539 0.158-0.783 0.106-0.244 0.247-0.455 0.424-0.634 0.177-0.175 0.385-0.317 0.625-0.422s0.495-0.159 0.765-0.159c0.278 0 0.539 0.053 0.783 0.159s0.458 0.247 0.639 0.422c0.181 0.178 0.327 0.39 0.436 0.634s0.164 0.505 0.164 0.783zM17.456 12.279v12.968h-3.121v-12.968h3.121z"></path>
        </symbol>
        <symbol id="icon-menu" viewBox="0 0 32 32">
            <title>menu</title>
            <path d="M2 6h28v6h-28zM2 14h28v6h-28zM2 22h28v6h-28z"></path>
        </symbol>
        <symbol id="icon-notification" viewBox="0 0 32 32">
            <title>notification</title>
            <path d="M16 3c-3.472 0-6.737 1.352-9.192 3.808s-3.808 5.72-3.808 9.192c0 3.472 1.352 6.737 3.808 9.192s5.72 3.808 9.192 3.808c3.472 0 6.737-1.352 9.192-3.808s3.808-5.72 3.808-9.192c0-3.472-1.352-6.737-3.808-9.192s-5.72-3.808-9.192-3.808zM16 0v0c8.837 0 16 7.163 16 16s-7.163 16-16 16c-8.837 0-16-7.163-16-16s7.163-16 16-16zM14 22h4v4h-4zM14 6h4v12h-4z"></path>
        </symbol>
        <symbol id="icon-clock" viewBox="0 0 32 32">
            <title>clock</title>
            <path class="path1" d="M16.015 0.191c-8.723 0-15.794 7.071-15.794 15.793s7.071 15.793 15.794 15.793c8.722-0 15.793-7.071 15.793-15.793s-7.071-15.793-15.793-15.793zM16.015 28.57c-6.951 0-12.586-5.635-12.586-12.585s5.635-12.585 12.586-12.585c6.95 0 12.585 5.635 12.585 12.585s-5.635 12.585-12.585 12.585z"></path>
            <path class="path2" d="M24.757 15.872h-8.949v-8.911c0-0.391-0.284-0.689-0.675-0.689h-1.698c-0.391 0-0.763 0.298-0.763 0.689v11.322c0 0.342 0.27 0.668 0.592 0.734 0.046 0.009 0.121 0.055 0.17 0.055h11.322c0.391 0 0.715-0.398 0.715-0.789v-1.698c-0-0.391-0.325-0.713-0.715-0.713z"></path>
        </symbol>
        <symbol id="icon-coins" viewBox="0 0 32 32">
            <title>coins</title>
            <path class="path1" d="M15.208 5.045c0 1.582-3.362 2.864-7.509 2.864s-7.509-1.282-7.509-2.864c0-1.582 3.362-2.864 7.509-2.864s7.509 1.282 7.509 2.864z"></path>
            <path class="path2" d="M7.699 9.206c-3.765 0-6.892-1.027-7.506-2.377 0.002 0.583 0.005 1.374 0.005 1.374 0.172 1.524 3.464 2.739 7.501 2.739s7.329-1.215 7.501-2.739c0 0 0.003-0.791 0.005-1.374-0.615 1.35-3.741 2.377-7.506 2.377z"></path>
            <path class="path3" d="M7.699 12.255c-3.765 0-6.892-1.027-7.506-2.377 0.002 0.583 0.005 1.374 0.005 1.374 0.172 1.524 3.464 2.739 7.501 2.739s7.329-1.215 7.501-2.739c0 0 0.003-0.791 0.005-1.374-0.615 1.35-3.741 2.377-7.506 2.377z"></path>
            <path class="path4" d="M7.699 15.261c-3.765 0-6.892-1.027-7.506-2.377 0.002 0.583 0.005 1.374 0.005 1.374 0.172 1.524 3.464 2.739 7.501 2.739s7.329-1.215 7.501-2.739c0 0 0.003-0.791 0.005-1.374-0.615 1.35-3.741 2.377-7.506 2.377z"></path>
            <path class="path5" d="M31.849 11.481c0 1.582-3.362 2.864-7.509 2.864s-7.509-1.282-7.509-2.864c0-1.582 3.362-2.864 7.509-2.864s7.509 1.282 7.509 2.864z"></path>
            <path class="path6" d="M24.34 15.642c-3.765 0-6.892-1.027-7.506-2.377 0.002 0.583 0.005 1.374 0.005 1.374 0.172 1.524 3.464 2.739 7.501 2.739s7.329-1.215 7.501-2.739c0 0 0.003-0.791 0.005-1.374-0.615 1.35-3.741 2.377-7.506 2.377z"></path>
            <path class="path7" d="M24.349 24.746c-0.001 0.634-0.001 1.239-0.002 1.736 4.034-0.001 7.322-1.216 7.494-2.739 0 0 0.003-0.791 0.005-1.374-0.614 1.349-3.736 2.376-7.498 2.377z"></path>
            <path class="path8" d="M23.465 20.839c0 1.582-3.362 2.864-7.509 2.864s-7.509-1.282-7.509-2.864c0-1.582 3.362-2.864 7.509-2.864s7.509 1.282 7.509 2.864z"></path>
            <path class="path9" d="M15.956 25c-3.765 0-6.892-1.027-7.506-2.377 0.002 0.583 0.005 1.374 0.005 1.374 0.172 1.524 3.464 2.739 7.501 2.739s7.329-1.215 7.501-2.739c0 0 0.003-0.791 0.005-1.374-0.615 1.35-3.741 2.377-7.506 2.377z"></path>
            <path class="path10" d="M15.956 28.049c-3.765 0-6.892-1.027-7.506-2.377 0.002 0.583 0.005 1.374 0.005 1.374 0.172 1.524 3.464 2.739 7.501 2.739s7.329-1.215 7.501-2.739c0 0 0.003-0.791 0.005-1.374-0.615 1.35-3.741 2.377-7.506 2.377z"></path>
            <path class="path11" d="M24.352 21.697c-0.001 0.505-0.001 1.109-0.002 1.736 4.032-0.002 7.319-1.216 7.491-2.739 0 0 0.003-0.791 0.005-1.374-0.614 1.348-3.734 2.375-7.494 2.377z"></path>
            <path class="path12" d="M24.34 18.691c-0.417 0-0.827-0.013-1.226-0.037 0.786 0.489 1.24 1.064 1.24 1.68 0 0.003-0 0.035-0 0.093 4.031-0.003 7.316-1.217 7.487-2.739 0 0 0.003-0.791 0.005-1.375-0.615 1.35-3.741 2.377-7.506 2.377z"></path>
            <path class="path13" d="M9.561 18.223c-0.596 0.056-1.219 0.086-1.861 0.086-3.765 0-6.892-1.027-7.506-2.377 0.002 0.583 0.005 1.374 0.005 1.374 0.169 1.502 3.371 2.704 7.329 2.738 0.162-0.694 0.901-1.325 2.034-1.822z"></path>
            <path class="path14" d="M7.494 21.357c-3.673-0.037-6.697-1.051-7.301-2.376 0.002 0.583 0.005 1.374 0.005 1.374 0.169 1.498 3.354 2.698 7.298 2.738-0.001-0.649-0.001-1.257-0.002-1.736z"></path>
            <path class="path15" d="M7.497 24.406c-3.675-0.036-6.701-1.051-7.304-2.376 0.002 0.583 0.005 1.374 0.005 1.374 0.169 1.498 3.356 2.698 7.301 2.738-0.001-0.518-0.001-1.12-0.002-1.736z"></path>
        </symbol>
        <symbol id="icon-close" viewBox="0 0 32 32">
            <title>close</title>
            <path class="path1" d="M31.708 25.708c-0-0-0-0-0-0l-9.708-9.708 9.708-9.708c0-0 0-0 0-0 0.105-0.105 0.18-0.227 0.229-0.357 0.133-0.356 0.057-0.771-0.229-1.057l-4.586-4.586c-0.286-0.286-0.702-0.361-1.057-0.229-0.13 0.048-0.252 0.124-0.357 0.228 0 0-0 0-0 0l-9.708 9.708-9.708-9.708c-0-0-0-0-0-0-0.105-0.104-0.227-0.18-0.357-0.228-0.356-0.133-0.771-0.057-1.057 0.229l-4.586 4.586c-0.286 0.286-0.361 0.702-0.229 1.057 0.049 0.13 0.124 0.252 0.229 0.357 0 0 0 0 0 0l9.708 9.708-9.708 9.708c-0 0-0 0-0 0-0.104 0.105-0.18 0.227-0.229 0.357-0.133 0.355-0.057 0.771 0.229 1.057l4.586 4.586c0.286 0.286 0.702 0.361 1.057 0.229 0.13-0.049 0.252-0.124 0.357-0.229 0-0 0-0 0-0l9.708-9.708 9.708 9.708c0 0 0 0 0 0 0.105 0.105 0.227 0.18 0.357 0.229 0.356 0.133 0.771 0.057 1.057-0.229l4.586-4.586c0.286-0.286 0.362-0.702 0.229-1.057-0.049-0.13-0.124-0.252-0.229-0.357z"></path>
        </symbol>
    </defs>
</svg>
